<svg width="40" height="40" viewBox="0 0 40 40" fill="none" xmlns="http://www.w3.org/2000/svg">
<path d="M20.002 34.9102C29.4745 34.9102 37.1535 27.2312 37.1535 17.7587C37.1535 8.28613 29.4745 0.60714 20.002 0.60714C10.5295 0.60714 2.85046 8.28613 2.85046 17.7587C2.85046 27.2312 10.5295 34.9102 20.002 34.9102Z" fill="url(#paint0_linear_25_931)"/>
<path d="M20.0011 32.3594C28.0678 32.3594 34.6072 25.8201 34.6072 17.7534C34.6072 9.68667 28.0678 3.14732 20.0011 3.14732C11.9344 3.14732 5.39508 9.68667 5.39508 17.7534C5.39508 25.8201 11.9344 32.3594 20.0011 32.3594Z" fill="#313131"/>
<path opacity="0.1" d="M30.7283 13.3337H28.6071C28.6071 13.1519 28.6071 12.9701 28.6071 12.7883H28.7283C29.3344 12.7883 29.7586 12.3034 29.7586 11.758C29.7586 11.1519 29.2738 10.7277 28.7283 10.7277H12.7889C12.1828 10.7277 11.7586 11.2125 11.7586 11.758C11.7586 12.364 12.2435 12.7883 12.7889 12.7883H12.9101C12.9101 12.9701 12.9101 13.1519 12.9101 13.3337H10.7889C10.2435 13.3337 9.81921 13.758 9.81921 14.3034V16.4246C9.81921 19.8186 12.2435 22.6671 15.5162 23.2731C16.6071 25.1519 17.9404 26.4853 19.395 26.9701C19.395 27.3337 19.5768 28.9701 18.7283 30.4853C17.6374 30.7277 16.9707 31.1519 16.9707 31.6974V33.4549C16.3647 33.6974 15.8798 34.061 15.698 34.364C17.0919 34.7277 18.5465 34.9095 20.001 34.9095C21.9404 34.9095 23.8192 34.6065 25.5162 34.0004C25.2738 33.8186 24.9707 33.5762 24.5465 33.4549V31.6974C24.5465 31.2125 23.8192 30.7277 22.7889 30.4853C22.001 28.9701 22.1828 27.3943 22.1222 26.9701C23.5768 26.4246 24.9101 25.1519 26.001 23.2731C29.2132 22.6671 31.698 19.8186 31.698 16.4246V14.3034C31.698 13.758 31.2132 13.3337 30.7283 13.3337ZM11.3344 16.4246V14.8489H13.0313C13.2738 17.2731 13.8192 19.5156 14.6071 21.3943C12.6677 20.5459 11.3344 18.6671 11.3344 16.4246ZM30.1828 16.4246C30.1828 18.6671 28.8495 20.6065 26.9101 21.3943C27.698 19.5156 28.2435 17.2731 28.4859 14.8489H30.1828V16.4246Z" fill="black"/>
<path d="M29.9381 12.6027H9.99869C9.45323 12.6027 9.02899 13.0269 9.02899 13.5724V15.6936C9.02899 19.5118 12.1199 22.6633 15.9987 22.6633H23.9381C27.7563 22.6633 30.9078 19.5118 30.9078 15.6936V13.5724C30.9078 13.0269 30.4835 12.6027 29.9381 12.6027ZM23.9987 21.1481H15.9987C12.9684 21.1481 10.5441 18.7239 10.5441 15.6936V14.1178H29.3926V15.6936C29.3926 18.6633 26.9684 21.1481 23.9987 21.1481Z" fill="url(#paint1_linear_25_931)"/>
<path d="M14.8505 37.4571C14.8505 38.4874 17.1535 39.3965 20.002 39.3965C22.8505 39.3965 25.1535 38.548 25.1535 37.4571V33.942H14.8505V37.4571Z" fill="url(#paint2_linear_25_931)"/>
<path d="M20.002 35.8788C22.8471 35.8788 25.1535 35.0105 25.1535 33.9394C25.1535 32.8683 22.8471 32 20.002 32C17.1569 32 14.8505 32.8683 14.8505 33.9394C14.8505 35.0105 17.1569 35.8788 20.002 35.8788Z" fill="url(#paint3_linear_25_931)"/>
<path d="M16.1805 33.5748C16.1805 34.3627 17.8775 34.9688 19.9987 34.9688C22.1199 34.9688 23.8169 34.3627 23.8169 33.5748V30.9688H16.1805V33.5748Z" fill="url(#paint4_linear_25_931)"/>
<path d="M19.999 32.3593C22.1077 32.3593 23.8171 31.7352 23.8171 30.9654C23.8171 30.1955 22.1077 29.5714 19.999 29.5714C17.8902 29.5714 16.1808 30.1955 16.1808 30.9654C16.1808 31.7352 17.8902 32.3593 19.999 32.3593Z" fill="url(#paint5_linear_25_931)"/>
<path d="M21.3936 25.3304H18.6057C18.5451 26.2394 18.9693 28.7243 17.3936 30.5425C17.3329 30.6637 17.2723 30.7243 17.2723 30.8455C17.2723 31.391 18.4845 31.8758 19.9996 31.8758C21.5148 31.8758 22.7269 31.4516 22.7269 30.8455C22.7269 30.7243 22.6663 30.6637 22.6057 30.5425C21.0299 28.7243 21.4542 26.3001 21.3936 25.3304Z" fill="url(#paint6_linear_25_931)"/>
<path d="M27.8803 10.8482C27.8803 19.5149 24.3652 26.4846 20.0015 26.4846C15.6379 26.4846 12.1227 19.4543 12.1227 10.8482H27.8803Z" fill="url(#paint7_linear_25_931)"/>
<path d="M29.0294 11.0265C29.0294 11.6326 28.5445 12.0568 27.999 12.0568H11.9991C11.393 12.0568 10.9688 11.572 10.9688 11.0265C10.9688 10.4204 11.4536 9.9962 11.9991 9.9962H27.9384C28.5445 9.93559 29.0294 10.4204 29.0294 11.0265Z" fill="url(#paint8_linear_25_931)"/>
<path d="M23.8803 17.5127C23.8803 19.6339 22.1833 21.3915 20.0015 21.3915C17.8803 21.3915 16.1227 19.6339 16.1227 17.5127C16.1227 15.3915 17.8803 13.6339 20.0015 13.6339C22.1227 13.6339 23.8803 15.3309 23.8803 17.5127Z" fill="#6548EE"/>
<path d="M20.2435 15.1453L20.8495 16.3574C20.9101 16.418 20.9707 16.4786 21.0313 16.4786L22.3647 16.6604C22.5465 16.6604 22.6677 16.9635 22.4859 17.0847L21.5162 18.0544C21.4556 18.115 21.4556 18.1756 21.4556 18.2968L21.698 19.6301C21.7586 19.812 21.5162 19.9938 21.3344 19.8726L20.1222 19.2665C20.0616 19.2059 19.9404 19.2059 19.8798 19.2665L18.6677 19.8726C18.4859 19.9938 18.2435 19.812 18.3041 19.6301L18.5465 18.2968C18.5465 18.2362 18.5465 18.115 18.4859 18.0544L17.5162 17.0847C17.395 16.9635 17.4556 16.6604 17.6374 16.6604L18.9707 16.4786C19.0313 16.4786 19.1526 16.418 19.1526 16.3574L19.7586 15.1453C19.8798 14.9635 20.1222 14.9635 20.2435 15.1453Z" fill="url(#paint9_linear_25_931)"/>
<defs>
<linearGradient id="paint0_linear_25_931" x1="20.002" y1="-3.66437" x2="20.002" y2="53.5792" gradientUnits="userSpaceOnUse">
<stop stop-color="white"/>
<stop offset="1" stop-color="#6548EE"/>
</linearGradient>
<linearGradient id="paint1_linear_25_931" x1="19.9999" y1="12.5966" x2="19.9999" y2="22.639" gradientUnits="userSpaceOnUse">
<stop stop-color="white"/>
<stop offset="1" stop-color="#6548EE"/>
</linearGradient>
<linearGradient id="paint2_linear_25_931" x1="20.0008" y1="40.4565" x2="20.0008" y2="32.7589" gradientUnits="userSpaceOnUse">
<stop stop-color="#AA9AF6"/>
<stop offset="1" stop-color="#2F189E"/>
</linearGradient>
<linearGradient id="paint3_linear_25_931" x1="20.0008" y1="36.8982" x2="20.0008" y2="31.0103" gradientUnits="userSpaceOnUse">
<stop stop-color="#B8AAFF"/>
<stop offset="1" stop-color="#2F189E"/>
</linearGradient>
<linearGradient id="paint4_linear_25_931" x1="19.9975" y1="37.0415" x2="19.9975" y2="29.7784" gradientUnits="userSpaceOnUse">
<stop stop-color="#C9BDFE"/>
<stop offset="1" stop-color="#4E31D5"/>
</linearGradient>
<linearGradient id="paint5_linear_25_931" x1="19.9978" y1="33.769" x2="19.9978" y2="27.7726" gradientUnits="userSpaceOnUse">
<stop stop-color="#A190F2"/>
<stop offset="1" stop-color="#4E31D5"/>
</linearGradient>
<linearGradient id="paint6_linear_25_931" x1="19.9984" y1="25.1304" x2="19.9984" y2="32.3479" gradientUnits="userSpaceOnUse">
<stop stop-color="white"/>
<stop offset="1" stop-color="#6548EE"/>
</linearGradient>
<linearGradient id="paint7_linear_25_931" x1="20.0015" y1="10.9373" x2="20.0015" y2="26.4567" gradientUnits="userSpaceOnUse">
<stop stop-color="white"/>
<stop offset="1" stop-color="#6548EE"/>
</linearGradient>
<linearGradient id="paint8_linear_25_931" x1="20.0003" y1="9.96104" x2="20.0003" y2="12.055" gradientUnits="userSpaceOnUse">
<stop stop-color="white"/>
<stop offset="1" stop-color="#6548EE"/>
</linearGradient>
<linearGradient id="paint9_linear_25_931" x1="20.001" y1="15.0289" x2="20.001" y2="26.1483" gradientUnits="userSpaceOnUse">
<stop stop-color="white"/>
<stop offset="1" stop-color="#878787"/>
</linearGradient>
</defs>
</svg>
