<svg width="35" height="36" viewBox="0 0 35 36" fill="none" xmlns="http://www.w3.org/2000/svg">
<path d="M6.74536 10.9739V2.27353L14.5996 5.86175C15.2524 6.15999 15.2524 7.08743 14.5996 7.38566L6.74536 10.9739Z" fill="#14A142"/>
<path d="M14.5998 7.38543L6.74536 10.973V9.81998L13.9564 6.52591C14.2754 6.38191 14.435 6.08334 14.4453 5.78979L14.5998 5.86192C15.2535 6.16049 15.2535 7.08686 14.5998 7.38543Z" fill="#008732"/>
<path d="M6.2955 18.8225C5.869 18.8225 5.52344 18.4768 5.52344 18.0504V2.18437C5.52344 1.758 5.869 1.41231 6.2955 1.41231C6.72199 1.41231 7.06756 1.758 7.06756 2.18437V18.0504C7.06756 18.4768 6.72199 18.8225 6.2955 18.8225Z" fill="#435E88"/>
<path d="M12.0076 17.2939V34.5881H1.02884V17.2939C1.02884 16.4806 1.68768 15.8269 2.4958 15.8269H10.5406C11.3539 15.8269 12.0076 16.4806 12.0076 17.2939Z" fill="#FFD80C"/>
<path d="M12.0088 34.5867H1.02841L10.5413 15.8241C11.3518 15.8241 12.0088 16.4811 12.0088 17.2915V34.5867Z" fill="#FFBE00"/>
<g clip-path="url(#clip0_25_993)">
<path d="M12.0108 21.4987V34.5877H21.5226C22.3358 34.5877 22.9895 33.9288 22.9895 33.1208V22.9656C22.9895 22.1523 22.3358 21.4987 21.5226 21.4987H12.0108Z" fill="#C1B6F8"/>
<path d="M22.9892 34.5867H13.4762C12.6658 34.5867 12.0088 33.9297 12.0088 33.1192L22.9892 21.4977V34.5867Z" fill="#6548EE"/>
</g>
<path d="M33.9733 25.9767V33.1208C33.9733 33.9288 33.3146 34.5877 32.5013 34.5877H22.9895V24.5097H32.5013C33.3146 24.5097 33.9733 25.1687 33.9733 25.9767Z" fill="#FCB982"/>
<path d="M32.504 34.5867H22.991L32.504 24.5097C33.3144 24.5097 33.9714 25.1667 33.9714 25.9772V33.1192C33.9714 33.9297 33.3144 34.5867 32.504 34.5867Z" fill="#FA801C"/>
<defs>
<clipPath id="clip0_25_993">
<path d="M12.0088 21.4977H21.4116C22.283 21.4977 22.9895 22.2041 22.9895 23.0756V34.5877H12.0088V21.4977Z" fill="white"/>
</clipPath>
</defs>
</svg>
