<svg width="24" height="24" viewBox="0 0 24 24" fill="none" xmlns="http://www.w3.org/2000/svg">
<path d="M1 21.002V19.002H23V21.002H1ZM4 18.002C3.45 18.002 2.97917 17.8061 2.5875 17.4145C2.19583 17.0228 2 16.552 2 16.002V5.00195C2 4.45195 2.19583 3.98112 2.5875 3.58945C2.97917 3.19779 3.45 3.00195 4 3.00195H20C20.55 3.00195 21.0208 3.19779 21.4125 3.58945C21.8042 3.98112 22 4.45195 22 5.00195V16.002C22 16.552 21.8042 17.0228 21.4125 17.4145C21.0208 17.8061 20.55 18.002 20 18.002H4ZM4 16.002H20V5.00195H4V16.002Z" fill="#383838"/>
<path d="M10.6558 12.7451L9.63914 13.7766L6.5 10.6374L9.62985 7.50758L10.6465 8.53909L8.5482 10.6374L10.6558 12.7451Z" fill="#383838"/>
<path d="M17.4091 10.6374L14.27 13.7766L13.2533 12.7451L15.3609 10.6374L13.2533 8.52981L14.27 7.49829L17.4091 10.6374Z" fill="#383838"/>
</svg>
