<svg width="24" height="24" viewBox="0 0 24 24" fill="none" xmlns="http://www.w3.org/2000/svg">
<path d="M11 19.427V12.577L5 9.10195V15.952L11 19.427ZM13 19.427L19 15.952V9.10195L13 12.577V19.427ZM12 10.852L17.925 7.42695L12 4.00195L6.075 7.42695L12 10.852ZM4 17.702C3.68333 17.5186 3.4375 17.277 3.2625 16.977C3.0875 16.677 3 16.3436 3 15.977V8.02695C3 7.66029 3.0875 7.32695 3.2625 7.02695C3.4375 6.72695 3.68333 6.48529 4 6.30195L11 2.27695C11.3167 2.09362 11.65 2.00195 12 2.00195C12.35 2.00195 12.6833 2.09362 13 2.27695L20 6.30195C20.3167 6.48529 20.5625 6.72695 20.7375 7.02695C20.9125 7.32695 21 7.66029 21 8.02695V15.977C21 16.3436 20.9125 16.677 20.7375 16.977C20.5625 17.277 20.3167 17.5186 20 17.702L13 21.727C12.6833 21.9103 12.35 22.002 12 22.002C11.65 22.002 11.3167 21.9103 11 21.727L4 17.702Z" fill="#383838"/>
</svg>
