<svg width="20" height="18" viewBox="0 0 20 18" fill="none" xmlns="http://www.w3.org/2000/svg">
<path d="M15 17.025C14.8667 17.025 14.7333 17.0083 14.6 16.975C14.4667 16.9417 14.3417 16.8833 14.225 16.8L11.225 15.05C10.9917 14.9167 10.8125 14.7375 10.6875 14.5125C10.5625 14.2875 10.5 14.0417 10.5 13.775V10.25C10.5 9.98333 10.5625 9.7375 10.6875 9.5125C10.8125 9.2875 10.9917 9.10833 11.225 8.975L14.225 7.225C14.3417 7.14167 14.4667 7.08333 14.6 7.05C14.7333 7.01667 14.8667 7 15 7C15.1333 7 15.2625 7.02083 15.3875 7.0625C15.5125 7.10417 15.6333 7.15833 15.75 7.225L18.75 8.975C18.9833 9.10833 19.1667 9.2875 19.3 9.5125C19.4333 9.7375 19.5 9.98333 19.5 10.25V13.775C19.5 14.0417 19.4333 14.2875 19.3 14.5125C19.1667 14.7375 18.9833 14.9167 18.75 15.05L15.75 16.8C15.6333 16.8667 15.5125 16.9208 15.3875 16.9625C15.2625 17.0042 15.1333 17.025 15 17.025ZM8 8C6.9 8 5.95833 7.60833 5.175 6.825C4.39167 6.04167 4 5.1 4 4C4 2.9 4.39167 1.95833 5.175 1.175C5.95833 0.391667 6.9 0 8 0C9.1 0 10.0417 0.391667 10.825 1.175C11.6083 1.95833 12 2.9 12 4C12 5.1 11.6083 6.04167 10.825 6.825C10.0417 7.60833 9.1 8 8 8ZM0 16V13.2C0 12.65 0.141667 12.1333 0.425 11.65C0.708333 11.1667 1.1 10.8 1.6 10.55C2.45 10.1167 3.40833 9.75 4.475 9.45C5.54167 9.15 6.71667 9 8 9H8.35C8.45 9 8.55 9.01667 8.65 9.05C8.51667 9.35 8.40417 9.6625 8.3125 9.9875C8.22083 10.3125 8.15 10.65 8.1 11H8C6.81667 11 5.75417 11.15 4.8125 11.45C3.87083 11.75 3.1 12.05 2.5 12.35C2.35 12.4333 2.22917 12.55 2.1375 12.7C2.04583 12.85 2 13.0167 2 13.2V14H8.3C8.4 14.35 8.53333 14.6958 8.7 15.0375C8.86667 15.3792 9.05 15.7 9.25 16H0ZM8 6C8.55 6 9.02083 5.80417 9.4125 5.4125C9.80417 5.02083 10 4.55 10 4C10 3.45 9.80417 2.97917 9.4125 2.5875C9.02083 2.19583 8.55 2 8 2C7.45 2 6.97917 2.19583 6.5875 2.5875C6.19583 2.97917 6 3.45 6 4C6 4.55 6.19583 5.02083 6.5875 5.4125C6.97917 5.80417 7.45 6 8 6ZM12.65 9.85L15 11.225L17.35 9.85L15 8.5L12.65 9.85ZM15.75 15.05L18 13.75V11L15.75 12.325V15.05ZM12 13.75L14.25 15.075V12.35L12 11.025V13.75Z" fill="#383838"/>
</svg>
