<svg width="24" height="24" viewBox="0 0 24 24" fill="none" xmlns="http://www.w3.org/2000/svg">
<path d="M14.5 5.49688L18.5 9.49688M3 20.9969H7L20 7.99688C20.5304 7.46645 20.8284 6.74703 20.8284 5.99688C20.8284 5.24674 20.5304 4.52732 20 3.99688C19.4696 3.46645 18.7501 3.16846 18 3.16846C17.2499 3.16846 16.5304 3.46645 16 3.99688L3 16.9969V20.9969Z" stroke="#383838" stroke-width="2" stroke-linecap="round" stroke-linejoin="round"/>
<path d="M12 8.00195L7 3.00195L3 7.00195L8 12.002M7 8.00195L5.5 9.50195M16 12.002L21 17.002L17 21.002L12 16.002M16 17.002L14.5 18.502" stroke="#383838" stroke-width="2" stroke-linecap="round" stroke-linejoin="round"/>
</svg>
